<!DOCTYPE svg PUBLIC "-//W3C//DTD SVG 1.1//EN" "http://www.w3.org/Graphics/SVG/1.1/DTD/svg11.dtd">
<!-- Uploaded to: SVG Repo, www.svgrepo.com, Transformed by: SVG Repo Mixer Tools -->
<svg height="800px" width="800px" version="1.1" id="_x32_" xmlns="http://www.w3.org/2000/svg" xmlns:xlink="http://www.w3.org/1999/xlink" viewBox="0 0 512 512" xml:space="preserve" fill="#00fa04">
<g id="SVGRepo_bgCarrier" stroke-width="0"/>
<g id="SVGRepo_tracerCarrier" stroke-linecap="round" stroke-linejoin="round"/>
<g id="SVGRepo_iconCarrier"> <style type="text/css"> .st0{fill:#00fa04;} </style> <g> <path class="st0" d="M70.697,395.352h80.633c5.658,0,10.246-4.252,10.246-9.498v-143.72c0-5.246-4.588-9.499-10.246-9.499H70.697 c-5.658,0-10.246,4.253-10.246,9.499v143.72C60.451,391.1,65.039,395.352,70.697,395.352z"/> <path class="st0" d="M215.684,395.352h80.631c5.658,0,10.248-4.252,10.248-9.498V141.117c0-5.246-4.59-9.498-10.248-9.498h-80.631 c-5.66,0-10.248,4.252-10.248,9.498v244.736C205.436,391.1,210.024,395.352,215.684,395.352z"/> <path class="st0" d="M360.668,395.352h80.631c5.66,0,10.248-4.252,10.248-9.498V25.964c0-5.246-4.588-9.499-10.248-9.499h-80.631 c-5.66,0-10.248,4.253-10.248,9.499v359.89C350.42,391.1,355.008,395.352,360.668,395.352z"/> <polygon class="st0" points="495.426,438.633 16.574,438.633 0,438.633 0,495.535 16.574,495.535 495.426,495.535 512,495.535 512,438.633 "/> </g> </g>
</svg>